<svg width="16" height="16" viewBox="0 0 16 16" fill="none" xmlns="http://www.w3.org/2000/svg">
<path fill-rule="evenodd" clip-rule="evenodd" d="M8.47139 2.86198C8.21104 2.60163 7.78893 2.60163 7.52858 2.86198C7.26823 3.12233 7.26823 3.54444 7.52858 3.80479L11.0572 7.33345H3.33332C2.96513 7.33345 2.66666 7.63193 2.66666 8.00012C2.66666 8.36831 2.96513 8.66678 3.33332 8.66678H11.0571L7.52858 12.1953C7.26823 12.4557 7.26823 12.8778 7.52858 13.1381C7.78893 13.3985 8.21104 13.3985 8.47139 13.1381L13.1381 8.47146C13.3984 8.21111 13.3984 7.789 13.1381 7.52865L8.47139 2.86198Z" fill="#40A3F8"/>
<path d="M7.52858 2.86198L7.17502 2.50843L7.17502 2.50843L7.52858 2.86198ZM8.47139 2.86198L8.82494 2.50843V2.50843L8.47139 2.86198ZM7.52858 3.80479L7.17502 4.15834L7.17502 4.15834L7.52858 3.80479ZM11.0572 7.33345V7.83345C11.2595 7.83345 11.4418 7.71163 11.5192 7.52479C11.5966 7.33795 11.5538 7.12289 11.4108 6.9799L11.0572 7.33345ZM11.0571 8.66678L11.4107 9.02034C11.5537 8.87734 11.5964 8.66228 11.519 8.47544C11.4417 8.2886 11.2593 8.16678 11.0571 8.16678V8.66678ZM7.52858 13.1381L7.17502 13.4917L7.52858 13.1381ZM8.47139 13.1381L8.82494 13.4917L8.47139 13.1381ZM13.1381 8.47146L12.7845 8.1179L12.7845 8.1179L13.1381 8.47146ZM13.1381 7.52865L12.7845 7.8822L12.7845 7.8822L13.1381 7.52865ZM7.88213 3.21553C7.94722 3.15045 8.05274 3.15045 8.11783 3.21553L8.82494 2.50843C8.36933 2.05281 7.63064 2.05281 7.17502 2.50843L7.88213 3.21553ZM7.88213 3.45124C7.81704 3.38615 7.81704 3.28062 7.88213 3.21553L7.17502 2.50843C6.71941 2.96404 6.71941 3.70273 7.17502 4.15834L7.88213 3.45124ZM11.4108 6.9799L7.88213 3.45124L7.17502 4.15834L10.7037 7.687L11.4108 6.9799ZM3.33332 7.83345H11.0572V6.83345H3.33332V7.83345ZM3.16666 8.00012C3.16666 7.90807 3.24128 7.83345 3.33332 7.83345V6.83345C2.68899 6.83345 2.16666 7.35578 2.16666 8.00012H3.16666ZM3.33332 8.16678C3.24128 8.16678 3.16666 8.09216 3.16666 8.00012H2.16666C2.16666 8.64445 2.68899 9.16678 3.33332 9.16678V8.16678ZM11.0571 8.16678H3.33332V9.16678H11.0571V8.16678ZM7.88213 12.5489L11.4107 9.02034L10.7036 8.31323L7.17502 11.8418L7.88213 12.5489ZM7.88213 12.7846C7.81704 12.7195 7.81704 12.614 7.88213 12.5489L7.17502 11.8418C6.71941 12.2974 6.71941 13.0361 7.17502 13.4917L7.88213 12.7846ZM8.11783 12.7846C8.05275 12.8497 7.94722 12.8497 7.88213 12.7846L7.17502 13.4917C7.63064 13.9473 8.36933 13.9473 8.82494 13.4917L8.11783 12.7846ZM12.7845 8.1179L8.11783 12.7846L8.82494 13.4917L13.4916 8.82501L12.7845 8.1179ZM12.7845 7.8822C12.8496 7.94729 12.8496 8.05281 12.7845 8.1179L13.4916 8.82501C13.9472 8.3694 13.9472 7.6307 13.4916 7.17509L12.7845 7.8822ZM8.11783 3.21553L12.7845 7.8822L13.4916 7.17509L8.82494 2.50843L8.11783 3.21553Z" fill="#40A3F8"/>
</svg>
