<svg width="16" height="17" viewBox="0 0 16 17" fill="none" xmlns="http://www.w3.org/2000/svg">
<path fill-rule="evenodd" clip-rule="evenodd" d="M8.47139 3.36201C8.21104 3.10166 7.78893 3.10166 7.52858 3.36201C7.26823 3.62236 7.26823 4.04447 7.52858 4.30482L11.0572 7.83348H3.33332C2.96513 7.83348 2.66666 8.13196 2.66666 8.50015C2.66666 8.86834 2.96513 9.16681 3.33332 9.16681H11.0571L7.52858 12.6953C7.26823 12.9557 7.26823 13.3778 7.52858 13.6382C7.78893 13.8985 8.21104 13.8985 8.47139 13.6382L13.1381 8.97149C13.3984 8.71114 13.3984 8.28903 13.1381 8.02868L8.47139 3.36201Z" fill="white"/>
<path d="M7.52858 3.36201L7.17502 3.00846L7.17502 3.00846L7.52858 3.36201ZM8.47139 3.36201L8.82494 3.00846V3.00846L8.47139 3.36201ZM7.52858 4.30482L7.17502 4.65837L7.17502 4.65837L7.52858 4.30482ZM11.0572 7.83348V8.33348C11.2595 8.33348 11.4418 8.21166 11.5192 8.02482C11.5966 7.83798 11.5538 7.62293 11.4108 7.47993L11.0572 7.83348ZM11.0571 9.16681L11.4107 9.52037C11.5537 9.37737 11.5964 9.16231 11.519 8.97547C11.4417 8.78863 11.2593 8.66681 11.0571 8.66681V9.16681ZM7.52858 13.6382L7.17502 13.9917L7.52858 13.6382ZM8.47139 13.6382L8.82494 13.9917L8.47139 13.6382ZM13.1381 8.97149L12.7845 8.61793L12.7845 8.61793L13.1381 8.97149ZM13.1381 8.02868L12.7845 8.38223L12.7845 8.38223L13.1381 8.02868ZM7.88213 3.71556C7.94722 3.65048 8.05274 3.65048 8.11783 3.71556L8.82494 3.00846C8.36933 2.55285 7.63064 2.55285 7.17502 3.00846L7.88213 3.71556ZM7.88213 3.95127C7.81704 3.88618 7.81704 3.78065 7.88213 3.71556L7.17502 3.00846C6.71941 3.46407 6.71941 4.20276 7.17502 4.65837L7.88213 3.95127ZM11.4108 7.47993L7.88213 3.95127L7.17502 4.65837L10.7037 8.18703L11.4108 7.47993ZM3.33332 8.33348H11.0572V7.33348H3.33332V8.33348ZM3.16666 8.50015C3.16666 8.4081 3.24128 8.33348 3.33332 8.33348V7.33348C2.68899 7.33348 2.16666 7.85581 2.16666 8.50015H3.16666ZM3.33332 8.66681C3.24128 8.66681 3.16666 8.59219 3.16666 8.50015H2.16666C2.16666 9.14448 2.68899 9.66681 3.33332 9.66681V8.66681ZM11.0571 8.66681H3.33332V9.66681H11.0571V8.66681ZM7.88213 13.0489L11.4107 9.52037L10.7036 8.81326L7.17502 12.3418L7.88213 13.0489ZM7.88213 13.2846C7.81704 13.2195 7.81704 13.114 7.88213 13.0489L7.17502 12.3418C6.71941 12.7974 6.71941 13.5361 7.17502 13.9917L7.88213 13.2846ZM8.11783 13.2846C8.05275 13.3497 7.94722 13.3497 7.88213 13.2846L7.17502 13.9917C7.63064 14.4473 8.36933 14.4473 8.82494 13.9917L8.11783 13.2846ZM12.7845 8.61793L8.11783 13.2846L8.82494 13.9917L13.4916 9.32504L12.7845 8.61793ZM12.7845 8.38223C12.8496 8.44732 12.8496 8.55284 12.7845 8.61793L13.4916 9.32504C13.9472 8.86943 13.9472 8.13073 13.4916 7.67512L12.7845 8.38223ZM8.11783 3.71556L12.7845 8.38223L13.4916 7.67512L8.82494 3.00846L8.11783 3.71556Z" fill="white"/>
</svg>
