<svg width="24" height="24" viewBox="0 0 24 24" fill="none" xmlns="http://www.w3.org/2000/svg">
<path d="M20.2246 13.9725L18.5701 12.6788C18.5911 12.4792 18.6091 12.246 18.6091 11.9993C18.6091 11.7525 18.5919 11.5193 18.5701 11.3198L20.2262 10.0253C20.5337 9.78227 20.6176 9.35101 20.4219 8.99179L18.7014 6.015C18.5176 5.67901 18.1149 5.5065 17.7062 5.65725L15.7539 6.44099C15.3797 6.17099 14.9874 5.943 14.5816 5.76075L14.2846 3.69001C14.2359 3.297 13.8939 3 13.4896 3H10.0397C9.6354 3 9.29417 3.297 9.24615 3.684L8.94841 5.76226C8.5554 5.93927 8.16917 6.16427 7.77841 6.4425L5.82091 5.65651C5.45413 5.51476 5.01538 5.67374 4.83313 6.00825L3.1104 8.98876C2.90716 9.33227 2.99115 9.77851 3.30541 10.0275L4.9599 11.3213C4.93364 11.574 4.92091 11.7938 4.92091 12C4.92091 12.2063 4.93367 12.426 4.9599 12.6795L3.3039 13.974C2.99639 14.2178 2.91314 14.649 3.10889 15.0075L4.8294 17.9843C5.01316 18.3195 5.41215 18.4935 5.82464 18.342L7.7769 17.5583C8.1504 17.8275 8.54264 18.0555 8.94841 18.2385L9.24541 20.3085C9.29414 20.703 9.6354 21 10.0404 21H13.4904C13.8946 21 14.2367 20.703 14.2846 20.316L14.5824 18.2385C14.9754 18.0608 15.3609 17.8365 15.7524 17.5575L17.7099 18.3435C17.8044 18.3802 17.9026 18.399 18.0039 18.399C18.2949 18.399 18.5626 18.24 18.6976 17.9925L20.4256 15C20.6177 14.649 20.5336 14.2178 20.2246 13.9725ZM11.7646 15C10.1102 15 8.76465 13.6545 8.76465 12C8.76465 10.3455 10.1102 9.00001 11.7646 9.00001C13.4191 9.00001 14.7646 10.3455 14.7646 12C14.7646 13.6545 13.4191 15 11.7646 15Z" fill="white"/>
</svg>
