<svg width="24" height="25" viewBox="0 0 24 25" fill="none" xmlns="http://www.w3.org/2000/svg">
<g clip-path="url(#clip0_21_472)">
<path d="M12.1249 0.49411C5.42913 0.49411 0 5.92324 0 12.619C0 19.3147 5.42913 24.7439 12.1249 24.7439C18.8206 24.7439 24.2498 19.3147 24.2498 12.619C24.2498 5.92324 18.8206 0.49411 12.1249 0.49411ZM12.1249 22.687C6.56584 22.687 2.0569 18.178 2.0569 12.619C2.0569 7.05995 6.56584 2.55101 12.1249 2.55101C17.6839 2.55101 22.1929 7.05995 22.1929 12.619C22.1929 18.178 17.6839 22.687 12.1249 22.687Z" fill="#00CFDE"/>
<path d="M11 7.7932C11 8.13775 11.1369 8.46818 11.3805 8.7118C11.6241 8.95543 11.9546 9.0923 12.2991 9.0923C12.6436 9.0923 12.9741 8.95543 13.2177 8.7118C13.4613 8.46818 13.5982 8.13775 13.5982 7.7932C13.5982 7.44866 13.4613 7.11823 13.2177 6.87461C12.9741 6.63098 12.6436 6.49411 12.2991 6.49411C11.9546 6.49411 11.6241 6.63098 11.3805 6.87461C11.1369 7.11823 11 7.44866 11 7.7932ZM12.9486 10.8244H11.6495C11.5305 10.8244 11.433 10.9219 11.433 11.0409V18.4025C11.433 18.5216 11.5305 18.619 11.6495 18.619H12.9486C13.0677 18.619 13.1652 18.5216 13.1652 18.4025V11.0409C13.1652 10.9219 13.0677 10.8244 12.9486 10.8244Z" fill="#00CFDE"/>
</g>
<defs>
<clipPath id="clip0_21_472">
<rect width="24" height="24" fill="white" transform="translate(0 0.494141)"/>
</clipPath>
</defs>
</svg>
