<svg width="24" height="25" viewBox="0 0 24 25" fill="none" xmlns="http://www.w3.org/2000/svg">
<path d="M20.0297 7.2582L14.9859 2.21445C14.8453 2.07383 14.6555 1.99414 14.4562 1.99414H4.5C4.08516 1.99414 3.75 2.3293 3.75 2.74414V22.2441C3.75 22.659 4.08516 22.9941 4.5 22.9941H19.5C19.9148 22.9941 20.25 22.659 20.25 22.2441V7.79023C20.25 7.59102 20.1703 7.39883 20.0297 7.2582ZM18.5203 8.13477H14.1094V3.72383L18.5203 8.13477ZM18.5625 21.3066H5.4375V3.68164H12.5156V8.74414C12.5156 9.00521 12.6193 9.25559 12.8039 9.4402C12.9885 9.6248 13.2389 9.72852 13.5 9.72852H18.5625V21.3066ZM11.8125 14.9785H7.5C7.39687 14.9785 7.3125 15.0629 7.3125 15.166V16.291C7.3125 16.3941 7.39687 16.4785 7.5 16.4785H11.8125C11.9156 16.4785 12 16.3941 12 16.291V15.166C12 15.0629 11.9156 14.9785 11.8125 14.9785ZM7.3125 11.9785V13.1035C7.3125 13.2066 7.39687 13.291 7.5 13.291H16.5C16.6031 13.291 16.6875 13.2066 16.6875 13.1035V11.9785C16.6875 11.8754 16.6031 11.791 16.5 11.791H7.5C7.39687 11.791 7.3125 11.8754 7.3125 11.9785Z" fill="#45DB91"/>
</svg>
