<svg width="101" height="15" viewBox="0 0 101 15" fill="none" xmlns="http://www.w3.org/2000/svg">
<path fill-rule="evenodd" clip-rule="evenodd" d="M14.2883 5.74046C14.1964 5.45618 13.9443 5.25375 13.6468 5.22544L9.56843 4.8524L7.96281 1.08844C7.84501 0.812056 7.5736 0.632721 7.27322 0.632721C6.97272 0.632721 6.70132 0.812056 6.58351 1.08844L4.9742 4.8524L0.901416 5.21901C0.599243 5.24379 0.341709 5.44785 0.248517 5.73632C0.155326 6.02473 0.244714 6.34094 0.475175 6.53784L3.55362 9.23681L2.64632 13.2336C2.57964 13.5262 2.69387 13.8303 2.93675 14.0067C3.17951 14.1831 3.50406 14.1976 3.76171 14.0438L7.27725 11.945L10.7874 14.0447C11.0452 14.1982 11.3696 14.1835 11.6124 14.0072C11.8551 13.831 11.9697 13.5271 11.9037 13.2345L10.9964 9.23776L14.0747 6.53873C14.3008 6.34077 14.387 6.02708 14.2938 5.74141L14.2883 5.74046Z" fill="url(#paint0_linear_5_294)"/>
<path fill-rule="evenodd" clip-rule="evenodd" d="M35.92 5.74049C35.8282 5.45621 35.576 5.25378 35.2785 5.22547L31.2002 4.85243L29.5945 1.08847C29.4767 0.812086 29.2053 0.632751 28.9049 0.632751C28.6044 0.632751 28.333 0.812086 28.2152 1.08847L26.6059 4.85243L22.5331 5.21904C22.231 5.24382 21.9734 5.44788 21.8802 5.73635C21.787 6.02476 21.8764 6.34097 22.1069 6.53787L25.1853 9.23684L24.278 13.2336C24.2114 13.5262 24.3256 13.8303 24.5685 14.0067C24.8112 14.1831 25.1358 14.1976 25.3934 14.0438L28.909 11.945L32.4191 14.0447C32.6769 14.1982 33.0013 14.1835 33.2441 14.0073C33.4869 13.8311 33.6014 13.5272 33.5354 13.2345L32.6281 9.23779L35.7065 6.53877C35.9325 6.3408 36.0187 6.02711 35.9255 5.74144L35.92 5.74049Z" fill="url(#paint1_linear_5_294)"/>
<path fill-rule="evenodd" clip-rule="evenodd" d="M57.5519 5.74049C57.46 5.45621 57.2078 5.25378 56.9104 5.22547L52.832 4.85243L51.2264 1.08847C51.1086 0.812086 50.8372 0.632751 50.5368 0.632751C50.2363 0.632751 49.9649 0.812086 49.8471 1.08847L48.2378 4.85243L44.165 5.21904C43.8628 5.24382 43.6053 5.44788 43.5121 5.73635C43.4189 6.02476 43.5083 6.34097 43.7387 6.53787L46.8172 9.23684L45.9099 13.2336C45.8432 13.5262 45.9574 13.8303 46.2003 14.0067C46.4431 14.1831 46.7676 14.1976 47.0253 14.0438L50.5408 11.945L54.051 14.0447C54.3087 14.1982 54.6332 14.1835 54.8759 14.0073C55.1187 13.8311 55.2333 13.5272 55.1673 13.2345L54.26 9.23779L57.3383 6.53877C57.5644 6.3408 57.6505 6.02711 57.5573 5.74144L57.5519 5.74049Z" fill="url(#paint2_linear_5_294)"/>
<path fill-rule="evenodd" clip-rule="evenodd" d="M100.815 5.74049C100.723 5.45621 100.471 5.25378 100.174 5.22547L96.0954 4.85243L94.4898 1.08847C94.372 0.812086 94.1006 0.632751 93.8002 0.632751C93.4997 0.632751 93.2283 0.812086 93.1105 1.08847L91.5012 4.85243L87.4284 5.21904C87.1262 5.24382 86.8687 5.44788 86.7755 5.73635C86.6823 6.02476 86.7717 6.34097 87.0022 6.53787L90.0806 9.23684L89.1733 13.2336C89.1066 13.5262 89.2208 13.8303 89.4637 14.0067C89.7065 14.1831 90.031 14.1976 90.2887 14.0438L93.8042 11.945L97.3144 14.0447C97.5722 14.1982 97.8966 14.1835 98.1394 14.0073C98.3821 13.8311 98.4967 13.5272 98.4307 13.2345L97.5234 9.23779L100.602 6.53877C100.828 6.3408 100.914 6.02711 100.821 5.74144L100.815 5.74049Z" fill="url(#paint3_linear_5_294)"/>
<path fill-rule="evenodd" clip-rule="evenodd" d="M79.1837 5.74049C79.0918 5.45621 78.8397 5.25378 78.5422 5.22547L74.4638 4.85243L72.8582 1.08847C72.7404 0.812086 72.469 0.632751 72.1686 0.632751C71.8681 0.632751 71.5967 0.812086 71.4789 1.08847L69.8696 4.85243L65.7968 5.21904C65.4946 5.24382 65.2371 5.44788 65.1439 5.73635C65.0507 6.02476 65.1401 6.34097 65.3706 6.53787L68.449 9.23684L67.5417 13.2336C67.475 13.5262 67.5893 13.8303 67.8321 14.0067C68.0749 14.1831 68.3994 14.1976 68.6571 14.0438L72.1726 11.945L75.6828 14.0447C75.9406 14.1982 76.265 14.1835 76.5078 14.0073C76.7505 13.8311 76.8651 13.5272 76.7991 13.2345L75.8918 9.23779L78.9701 6.53877C79.1962 6.3408 79.2824 6.02711 79.1892 5.74144L79.1837 5.74049Z" fill="url(#paint4_linear_5_294)"/>
<defs>
<linearGradient id="paint0_linear_5_294" x1="7.27148" y1="0.632721" x2="7.27148" y2="14.1504" gradientUnits="userSpaceOnUse">
<stop stop-color="#FFD056"/>
<stop offset="0.744792" stop-color="#F8C14F"/>
<stop offset="1" stop-color="#F7B73B"/>
</linearGradient>
<linearGradient id="paint1_linear_5_294" x1="28.9032" y1="0.632751" x2="28.9032" y2="14.1504" gradientUnits="userSpaceOnUse">
<stop stop-color="#FFD056"/>
<stop offset="0.744792" stop-color="#F8C14F"/>
<stop offset="1" stop-color="#F7B73B"/>
</linearGradient>
<linearGradient id="paint2_linear_5_294" x1="50.535" y1="0.632751" x2="50.535" y2="14.1504" gradientUnits="userSpaceOnUse">
<stop stop-color="#FFD056"/>
<stop offset="0.744792" stop-color="#F8C14F"/>
<stop offset="1" stop-color="#F7B73B"/>
</linearGradient>
<linearGradient id="paint3_linear_5_294" x1="93.7985" y1="0.632751" x2="93.7985" y2="14.1504" gradientUnits="userSpaceOnUse">
<stop stop-color="#FFD056"/>
<stop offset="0.744792" stop-color="#F8C14F"/>
<stop offset="1" stop-color="#F7B73B"/>
</linearGradient>
<linearGradient id="paint4_linear_5_294" x1="72.1669" y1="0.632751" x2="72.1669" y2="14.1504" gradientUnits="userSpaceOnUse">
<stop stop-color="#FFD056"/>
<stop offset="0.744792" stop-color="#F8C14F"/>
<stop offset="1" stop-color="#F7B73B"/>
</linearGradient>
</defs>
</svg>
