<svg width="28" height="30" viewBox="0 0 28 30" fill="none" xmlns="http://www.w3.org/2000/svg">
<g filter="url(#filter0_ii_498_4)">
<path d="M1.05944 0.668911C0.723171 1.02311 0.524414 1.57281 0.524414 2.28466V27.7181C0.524414 28.4311 0.723171 28.9796 1.05944 29.3338L1.14495 29.4166L15.4611 15.1693V15.0014V14.8335L1.14495 0.584961L1.05944 0.668911Z" fill="url(#paint0_linear_498_4)"/>
<path d="M20.2325 19.9197L15.4612 15.169V15.0011V14.8332L20.2336 10.0837L20.3411 10.1447L25.9952 13.3417C27.6095 14.2548 27.6095 15.7486 25.9952 16.6629L20.3411 19.8599L20.2325 19.9197Z" fill="url(#paint1_linear_498_4)"/>
<g filter="url(#filter1_i_498_4)">
<path d="M20.341 19.8588L15.46 15.0012L1.05945 29.3337C1.591 29.8949 2.47038 29.9639 3.46069 29.405L20.341 19.8588Z" fill="url(#paint2_linear_498_4)"/>
</g>
<path d="M20.341 10.1436L3.46069 0.598645C2.47038 0.0385947 1.591 0.108745 1.05945 0.669945L15.4611 15.0024L20.341 10.1436Z" fill="url(#paint3_linear_498_4)"/>
</g>
<defs>
<filter id="filter0_ii_498_4" x="0.524414" y="0.212158" width="26.6815" height="29.5789" filterUnits="userSpaceOnUse" color-interpolation-filters="sRGB">
<feFlood flood-opacity="0" result="BackgroundImageFix"/>
<feBlend mode="normal" in="SourceGraphic" in2="BackgroundImageFix" result="shape"/>
<feColorMatrix in="SourceAlpha" type="matrix" values="0 0 0 0 0 0 0 0 0 0 0 0 0 0 0 0 0 0 127 0" result="hardAlpha"/>
<feOffset dy="-0.15"/>
<feComposite in2="hardAlpha" operator="arithmetic" k2="-1" k3="1"/>
<feColorMatrix type="matrix" values="0 0 0 0 0 0 0 0 0 0 0 0 0 0 0 0 0 0 0.12 0"/>
<feBlend mode="normal" in2="shape" result="effect1_innerShadow_498_4"/>
<feColorMatrix in="SourceAlpha" type="matrix" values="0 0 0 0 0 0 0 0 0 0 0 0 0 0 0 0 0 0 127 0" result="hardAlpha"/>
<feOffset dy="0.15"/>
<feComposite in2="hardAlpha" operator="arithmetic" k2="-1" k3="1"/>
<feColorMatrix type="matrix" values="0 0 0 0 1 0 0 0 0 1 0 0 0 0 1 0 0 0 0.25 0"/>
<feBlend mode="normal" in2="effect1_innerShadow_498_4" result="effect2_innerShadow_498_4"/>
</filter>
<filter id="filter1_i_498_4" x="1.05945" y="15.0012" width="19.2816" height="14.7898" filterUnits="userSpaceOnUse" color-interpolation-filters="sRGB">
<feFlood flood-opacity="0" result="BackgroundImageFix"/>
<feBlend mode="normal" in="SourceGraphic" in2="BackgroundImageFix" result="shape"/>
<feColorMatrix in="SourceAlpha" type="matrix" values="0 0 0 0 0 0 0 0 0 0 0 0 0 0 0 0 0 0 127 0" result="hardAlpha"/>
<feOffset dy="-0.15"/>
<feComposite in2="hardAlpha" operator="arithmetic" k2="-1" k3="1"/>
<feColorMatrix type="matrix" values="0 0 0 0 0 0 0 0 0 0 0 0 0 0 0 0 0 0 0.08 0"/>
<feBlend mode="normal" in2="shape" result="effect1_innerShadow_498_4"/>
</filter>
<linearGradient id="paint0_linear_498_4" x1="14.1921" y1="2.01556" x2="-5.10698" y2="21.4079" gradientUnits="userSpaceOnUse">
<stop stop-color="#00A0FF"/>
<stop offset="0.0066" stop-color="#00A1FF"/>
<stop offset="0.2601" stop-color="#00BEFF"/>
<stop offset="0.5122" stop-color="#00D2FF"/>
<stop offset="0.7604" stop-color="#00DFFF"/>
<stop offset="1" stop-color="#00E3FF"/>
</linearGradient>
<linearGradient id="paint1_linear_498_4" x1="28.0966" y1="15.0011" x2="0.1369" y2="15.0011" gradientUnits="userSpaceOnUse">
<stop stop-color="#FFE000"/>
<stop offset="0.4087" stop-color="#FFBD00"/>
<stop offset="0.7754" stop-color="#FFA500"/>
<stop offset="1" stop-color="#FF9C00"/>
</linearGradient>
<linearGradient id="paint2_linear_498_4" x1="17.6903" y1="17.6392" x2="-8.48165" y2="43.9376" gradientUnits="userSpaceOnUse">
<stop stop-color="#FF3A44"/>
<stop offset="1" stop-color="#C31162"/>
</linearGradient>
<linearGradient id="paint3_linear_498_4" x1="-2.56738" y1="-7.79658" x2="9.11913" y2="3.94638" gradientUnits="userSpaceOnUse">
<stop stop-color="#32A071"/>
<stop offset="0.0685" stop-color="#2DA771"/>
<stop offset="0.4762" stop-color="#15CF74"/>
<stop offset="0.8009" stop-color="#06E775"/>
<stop offset="1" stop-color="#00F076"/>
</linearGradient>
</defs>
</svg>
