<svg width="16" height="16" viewBox="0 0 16 16" fill="none" xmlns="http://www.w3.org/2000/svg">
<path fill-rule="evenodd" clip-rule="evenodd" d="M3.95254 2.55367C3.95254 3.4245 3.28948 4.12924 2.25256 4.12924C1.25604 4.12924 0.59298 3.4245 0.6135 2.55367C0.59298 1.64052 1.25603 0.956299 2.27242 0.956299C3.28946 0.956299 3.93266 1.64052 3.95254 2.55367ZM0.696867 15.5173V5.37392H3.84929V15.5167H0.696867V15.5173Z" fill="white"/>
<path fill-rule="evenodd" clip-rule="evenodd" d="M6.37609 8.61114C6.37609 7.34594 6.33441 6.26734 6.29272 5.37535H9.03089L9.17645 6.76496H9.23867C9.65356 6.12178 10.6905 5.14771 12.3706 5.14771C14.4444 5.14771 16.0001 6.51679 16.0001 9.50248V15.5188H12.8477V9.8975C12.8477 8.58997 12.3917 7.69863 11.2509 7.69863C10.3795 7.69863 9.86134 8.30013 9.65421 8.88046C9.57085 9.08823 9.5298 9.37808 9.5298 9.66921V15.5188H6.37736V8.61114H6.37609Z" fill="white"/>
</svg>
