<svg width="18" height="14" viewBox="0 0 18 14" fill="none" xmlns="http://www.w3.org/2000/svg">
<path fill-rule="evenodd" clip-rule="evenodd" d="M17.2748 2.14207C16.6663 2.41237 16.0115 2.59441 15.3247 2.6766C16.0259 2.25626 16.5643 1.59098 16.8175 0.798283C16.1621 1.18774 15.4345 1.46963 14.6617 1.62243C14.0422 0.962672 13.159 0.550049 12.1832 0.550049C10.3082 0.550049 8.78787 2.07036 8.78787 3.94537C8.78787 4.21125 8.81821 4.47052 8.87613 4.71931C6.05396 4.57809 3.55229 3.22603 1.87753 1.17174C1.58516 1.67318 1.41802 2.25626 1.41802 2.87851C1.41802 4.05625 2.01654 5.09553 2.92839 5.70454C2.37124 5.68688 1.84829 5.53408 1.38988 5.27978V5.32225C1.38988 6.96778 2.561 8.3397 4.11331 8.65247C3.82866 8.7297 3.52857 8.77163 3.21911 8.77163C3.00011 8.77163 2.78717 8.75011 2.57976 8.71039C3.01169 10.0591 4.26611 11.0411 5.75166 11.0686C4.58992 11.9788 3.12588 12.5222 1.53496 12.5222C1.26025 12.5222 0.989946 12.5062 0.724609 12.4742C2.22727 13.4374 4.01181 14 5.92929 14C12.1744 14 15.5895 8.82624 15.5895 4.33978C15.5895 4.1925 15.5868 4.04577 15.5796 3.90069C16.2438 3.42076 16.8197 2.82279 17.2748 2.14207Z" fill="white"/>
</svg>
